<svg width="171" height="40" viewBox="0 0 171 40" fill="none" xmlns="http://www.w3.org/2000/svg">
<path d="M18.6786 15.9571L18.4851 16.4492C18.0756 17.3557 17.2967 18.4351 16.0346 19.8111C10.674 25.6638 7.13433 25.8003 11.5688 20.4446C11.5688 20.4446 16.4756 16.1427 11.392 9.72925C7.36808 4.6515 10.5571 5.47356 12.5725 7.32002C13.3887 8.06646 15.0672 9.61729 16.4403 11.0876C18.1315 12.8997 19.2983 14.0458 18.6786 15.9571ZM7.33469 18.6266C7.33469 18.6266 10.2065 15.8078 7.22665 11.6022C4.86947 8.27271 6.73557 8.8129 7.91711 10.0239C8.39542 10.514 9.37954 11.5305 10.1839 12.495C11.6965 14.3081 12.492 15.1056 9.95017 18.2131C6.81513 22.0475 4.74179 22.1359 7.33469 18.6266ZM1.48103 16.9078C1.48103 16.9078 5.02662 15.4876 1.38282 13.3937C-1.49982 11.7368 0.793521 11.999 2.24024 12.6011C3.17571 12.9852 4.10059 13.3945 5.01385 13.8288C6.86522 14.7314 7.8405 15.1272 4.69956 16.6908C0.823967 18.6197 -1.72571 18.6728 1.48103 16.9078ZM136.706 22.6044C135.638 22.9383 134.572 23.1062 133.511 23.1062C131.426 23.1062 129.809 22.4423 128.658 21.1154C127.507 19.7895 126.933 17.9558 126.933 15.6173C126.933 13.1874 127.548 11.2948 128.781 9.93845C130.011 8.58406 131.695 7.90735 133.836 7.90735C135.452 7.90735 137.187 8.28744 139.041 9.0496C139.004 9.58782 138.923 10.2969 138.796 11.1789C138.682 11.9941 138.548 12.8062 138.393 13.6147L136.586 13.7797L134.914 11.5816C134.417 11.4848 133.911 11.4381 133.404 11.4421C132.955 11.4421 132.54 11.4696 132.163 11.5256C131.748 12.3428 131.544 13.4939 131.544 14.9779C131.544 16.5002 131.805 17.6258 132.325 18.3595C132.846 19.0922 133.638 19.4595 134.698 19.4595C135.202 19.4595 135.814 19.3809 136.532 19.2228C137.286 19.0535 138.025 18.8253 138.743 18.5402L139.392 21.3236C138.672 21.8442 137.775 22.2685 136.706 22.6044ZM67.7393 21.6566H67.6568C66.9202 22.1025 66.1443 22.459 65.3272 22.7301C64.508 22.9972 63.7655 23.1328 63.1016 23.1328C61.6647 23.1328 60.5932 22.6908 59.8929 21.8098C59.1926 20.9288 58.842 19.597 58.842 17.8163V12.8339C58.842 12.4243 58.8096 12.1601 58.7477 12.0403C58.6848 11.9185 58.5267 11.7849 58.2762 11.6376L57.0623 10.9687L57.1959 8.88067C57.4493 8.84433 57.628 8.80799 57.737 8.7687C57.9335 8.73236 58.6396 8.6037 59.8526 8.37878C61.0656 8.1578 62.0762 8.02914 62.8855 7.98985C63.0819 8.45539 63.2361 8.99165 63.3432 9.60452V16.6191C63.3432 17.4362 63.3658 18.0098 63.411 18.3438C63.4561 18.6787 63.5995 18.933 63.8441 19.1098C64.0857 19.2866 64.5041 19.375 65.0963 19.375C65.9597 19.375 66.7955 19.2179 67.6038 18.9016V12.8339C67.6038 12.4243 67.5783 12.1601 67.5223 12.0403C67.4692 11.9185 67.3249 11.7849 67.0901 11.6376L65.9066 10.9687L66.0137 8.88067C67.4692 8.6037 68.6066 8.38959 69.4247 8.24128C70.2419 8.09396 70.9932 8.00949 71.6758 7.98985C71.8722 8.45539 72.0255 8.99165 72.1335 9.60452V18.7337C72.1335 19.0686 72.16 19.2994 72.215 19.43C72.2681 19.5606 72.3938 19.6883 72.5932 19.8199L73.6706 20.4613L73.5891 22.185C72.7091 22.4108 71.8185 22.5927 70.9205 22.7301C69.9923 22.879 69.0565 22.9757 68.1175 23.0198C68.0286 22.7438 67.9474 22.4654 67.8739 22.185C67.8482 22.0045 67.8031 21.8273 67.7393 21.6566ZM54.7041 9.90997C55.7924 11.2477 56.309 13.1481 56.2559 15.6163L48.0589 17.175C48.3093 17.9548 48.6649 18.5245 49.1235 18.8869C49.5822 19.2483 50.1872 19.43 50.9415 19.43C51.463 19.43 52.0847 19.3514 52.8027 19.1943C53.5456 19.0288 54.2756 18.8099 54.987 18.5392L55.6077 21.2961C54.9428 21.8147 54.0785 22.241 53.0188 22.5739C51.958 22.9098 50.8894 23.0768 49.811 23.0768C47.7082 23.0768 46.0857 22.4187 44.9444 21.0987C43.8012 19.7826 43.2325 17.9656 43.2325 15.6438C43.2325 14.0311 43.5105 12.6423 44.0674 11.4834C44.6252 10.3244 45.4149 9.43755 46.4403 8.82468C47.4647 8.2128 48.6599 7.90637 50.0251 7.90637C52.0582 7.90637 53.6159 8.57423 54.7041 9.90997ZM47.7878 14.42L51.8333 13.2788C51.796 12.5736 51.6035 12.0589 51.2538 11.7329C50.9022 11.4087 50.4131 11.2477 49.7835 11.2477C49.2804 11.2442 48.7798 11.3188 48.2995 11.4687C47.9223 12.3791 47.7514 13.3613 47.7878 14.42ZM112.712 4.45605L107.782 5.80455L106.564 1.31806L111.494 0L112.712 4.45605ZM33.795 20.6253L33.6879 22.7144H25.87L25.7325 20.0704L27.4051 19.5685V12.8339C27.4051 12.4253 27.3786 12.1601 27.3236 12.0403C27.2715 11.9185 27.1252 11.7849 26.8934 11.6376L25.7059 10.9687L25.7884 8.88165L26.3807 8.7687C28.7349 8.28646 30.434 8.02815 31.4761 7.99083C31.6205 8.37878 31.7364 8.80799 31.8267 9.27157C32.9238 8.75102 33.8176 8.3945 34.51 8.19905C35.1451 8.01263 35.8027 7.91415 36.4645 7.90637C39.3226 7.90637 40.7506 9.66934 40.7506 13.1953V18.6512C40.7506 19.0411 40.7781 19.2994 40.8321 19.43C40.8862 19.5606 41.0384 19.7001 41.2898 19.8474L42.5863 20.6253L42.4773 22.7144H35.0355L34.9019 20.0704L36.2229 19.6815V14.42C36.2229 13.5852 36.1964 12.9989 36.1414 12.6649C36.1013 12.3569 35.9414 12.077 35.6964 11.8861C35.4548 11.7024 35.0266 11.6091 34.4167 11.6091C33.7695 11.6091 32.9503 11.7103 31.9623 11.9136V18.6512C31.9623 19.0411 31.9898 19.2994 32.0438 19.43C32.0988 19.5606 32.2422 19.7001 32.476 19.8474L33.795 20.6253ZM167.623 22.5739C166.562 22.9098 165.491 23.0768 164.415 23.0768C162.31 23.0768 160.69 22.4187 159.547 21.0987C158.405 19.7826 157.836 17.9656 157.836 15.6438C157.836 14.0301 158.114 12.6423 158.67 11.4834C159.227 10.3244 160.02 9.43755 161.042 8.82468C162.069 8.2128 163.264 7.90637 164.63 7.90637C166.66 7.90637 168.221 8.57423 169.307 9.90997C170.395 11.2477 170.913 13.1481 170.859 15.6163L162.662 17.175C162.913 17.9548 163.269 18.5245 163.727 18.8869C164.185 19.2483 164.792 19.43 165.546 19.43C166.067 19.43 166.686 19.3514 167.408 19.1943C168.15 19.0285 168.88 18.8096 169.591 18.5392L170.211 21.2961C169.546 21.8147 168.683 22.24 167.623 22.5739ZM164.387 11.2477C163.884 11.244 163.384 11.3185 162.904 11.4687C162.525 12.3791 162.355 13.3613 162.392 14.42L166.436 13.2788C166.401 12.5736 166.208 12.0589 165.857 11.7329C165.506 11.4087 165.016 11.2477 164.387 11.2477ZM155.354 18.6787C155.354 19.0686 155.381 19.3269 155.435 19.4585C155.49 19.5881 155.641 19.7266 155.894 19.8749L157.188 20.6538L157.082 22.7428H149.639L149.504 20.0989L150.826 19.709V14.42C150.826 13.6029 150.803 13.0244 150.757 12.6816C150.714 12.3359 150.566 12.0727 150.315 11.8861C150.061 11.7024 149.639 11.6091 149.046 11.6091C148.47 11.6091 147.644 11.7103 146.565 11.9136V18.6787C146.565 19.0686 146.594 19.3269 146.647 19.4585C146.701 19.5881 146.845 19.7266 147.079 19.8749L148.399 20.6538L148.291 22.7428H140.473L140.338 20.0989L142.008 19.598V6.26616C142.008 5.85759 141.983 5.59339 141.928 5.47258C141.875 5.35178 141.731 5.2182 141.497 5.0699L140.312 4.42855L140.391 2.31298L141.227 2.1745C143.599 1.7286 145.262 1.48895 146.217 1.45065C146.376 1.89458 146.494 2.3778 146.565 2.89835V9.24308C147.554 8.78147 148.396 8.44066 149.087 8.22753C149.754 8.01806 150.449 7.91045 151.149 7.90833C153.952 7.90833 155.354 9.67032 155.354 13.1963V18.6787ZM86.9641 21.2961C86.2982 21.8147 85.4358 22.24 84.3751 22.5739C83.3382 22.9059 82.2562 23.0755 81.1674 23.0768C79.0646 23.0768 77.4421 22.4187 76.3008 21.0987C75.1576 19.7826 74.5879 17.9656 74.5879 15.6438C74.5879 14.0301 74.8668 12.6423 75.4237 11.4834C75.9816 10.3244 76.7713 9.43755 77.7976 8.82468C78.821 8.2128 80.0163 7.90637 81.3825 7.90637C83.4136 7.90637 84.9723 8.57423 86.0595 9.90997C87.1477 11.2477 87.6653 13.1481 87.6113 15.6163L79.4142 17.175C79.6657 17.9548 80.0212 18.5245 80.4789 18.8869C80.9385 19.2483 81.5445 19.43 82.2998 19.43C82.8204 19.43 83.4411 19.3514 84.16 19.1943C84.9026 19.0286 85.6322 18.8097 86.3434 18.5392L86.9641 21.2961ZM81.1409 11.2477C80.6203 11.2477 80.1253 11.3194 79.6578 11.4687C79.2807 12.3791 79.1088 13.3613 79.1441 14.42L83.1887 13.2788C83.1533 12.5736 82.9608 12.0589 82.6092 11.7329C82.2586 11.4087 81.7694 11.2477 81.1409 11.2477ZM125.668 16.7576C125.912 17.2035 126.031 17.7417 126.031 18.3713C126.031 19.8936 125.47 21.082 124.348 21.9365C123.222 22.788 121.673 23.2162 119.696 23.2162C118.274 23.2162 116.63 22.956 114.761 22.4364C114.869 20.6184 114.987 19.2719 115.112 18.3997L116.649 18.0943L118.348 19.9574C118.94 20.144 119.605 20.2364 120.342 20.2364C120.756 20.2364 121.079 20.2099 121.314 20.1529C121.366 20.0065 121.394 19.8013 121.394 19.54C121.401 19.3444 121.35 19.151 121.246 18.9851C121.148 18.8368 120.926 18.661 120.585 18.4547C120.244 18.2514 119.65 17.9362 118.806 17.5109C117.747 16.9344 116.936 16.4187 116.38 15.965C115.824 15.5112 115.423 15.0417 115.18 14.5585C114.935 14.0763 114.816 13.5017 114.816 12.8339C114.816 11.3488 115.349 10.1722 116.42 9.29907C117.489 8.42789 118.94 7.98985 120.774 7.98985C121.529 7.98985 122.325 8.07824 123.161 8.25503C123.997 8.43182 124.747 8.66852 125.412 8.96513C125.412 10.1712 125.332 11.5168 125.168 12.9998L123.767 13.2228L121.961 11.2192C121.494 11.0709 120.809 10.9972 119.911 10.9972C119.767 10.9972 119.479 11.0139 119.048 11.0512C118.996 11.1632 118.969 11.34 118.969 11.5816C118.969 11.8419 119.039 12.0678 119.183 12.2632C119.326 12.4567 119.583 12.6708 119.953 12.9036C120.319 13.1364 120.91 13.4644 121.718 13.8916C122.904 14.4858 123.797 15.0015 124.401 15.4346C125.003 15.8726 125.424 16.3117 125.668 16.7576ZM111.741 18.6787C111.741 19.0686 111.767 19.3269 111.821 19.4585C111.876 19.5881 112.028 19.7266 112.281 19.8749L113.601 20.6538L113.523 22.7428H105.432L105.298 20.1824L107.212 19.597V12.8339C107.212 12.4243 107.172 12.1522 107.09 12.0118C107.011 11.8733 106.799 11.7103 106.458 11.5246L105.386 11.5197V8.24325L111.741 8.13128V18.6787ZM102.607 20.8227L102.525 22.7428H94.0592L93.9796 20.1824L95.8654 19.597V11.4421L93.9796 11.4137V8.68718L95.8654 8.5762V6.76608C95.8654 5.09641 96.3388 3.79407 97.2817 2.85611C98.2265 1.92012 99.5327 1.45163 101.206 1.45163C102.301 1.45163 103.514 1.57145 104.844 1.81306L104.225 5.5983C103.549 5.39958 102.86 5.24538 102.163 5.13668C101.577 5.05509 100.986 5.02322 100.395 5.04141V8.32575L102.625 8.28646V11.5079L100.395 11.4981V18.6806C100.395 19.0696 100.423 19.3289 100.478 19.4605C100.532 19.5891 100.684 19.7276 100.934 19.8759L102.607 20.8227Z" fill="#FF4A11"/>
<path d="M0 37.5342V29.2282H2.90385C3.48245 29.2282 3.95967 29.3282 4.33549 29.5283C4.71132 29.7257 4.99116 29.992 5.17501 30.3273C5.35887 30.6599 5.4508 31.0289 5.4508 31.4345C5.4508 31.7914 5.38726 32.0861 5.26018 32.3186C5.13581 32.5511 4.97088 32.735 4.76539 32.8702C4.56261 33.0054 4.34225 33.1054 4.10432 33.1703V33.2514C4.35847 33.2676 4.61398 33.3569 4.87084 33.5191C5.1277 33.6813 5.34265 33.9138 5.51569 34.2167C5.68873 34.5195 5.77525 34.8899 5.77525 35.3279C5.77525 35.7443 5.68062 36.1188 5.49135 36.4513C5.30209 36.7839 5.00332 37.0475 4.59505 37.2422C4.18678 37.4369 3.65549 37.5342 3.00118 37.5342H0ZM1.0058 36.6419H3.00118C3.6582 36.6419 4.1246 36.5149 4.40038 36.2607C4.67887 36.0039 4.81811 35.6929 4.81811 35.3279C4.81811 35.0467 4.74647 34.7872 4.60317 34.5492C4.45987 34.3086 4.25573 34.1166 3.99076 33.9733C3.72579 33.8273 3.41216 33.7543 3.04985 33.7543H1.0058V36.6419ZM1.0058 32.8783H2.8714C3.17422 32.8783 3.4473 32.8188 3.69064 32.6998C3.93669 32.5809 4.13136 32.4132 4.27466 32.1969C4.42066 31.9806 4.49366 31.7265 4.49366 31.4345C4.49366 31.0695 4.36659 30.7599 4.11243 30.5057C3.85828 30.2489 3.45542 30.1205 2.90385 30.1205H1.0058V32.8783Z" fill="#FF4A11"/>
<path d="M9.82887 37.664C9.26649 37.664 8.77305 37.5301 8.34856 37.2625C7.92677 36.9948 7.59691 36.6203 7.35898 36.139C7.12375 35.6578 7.00614 35.0954 7.00614 34.4519C7.00614 33.803 7.12375 33.2365 7.35898 32.7526C7.59691 32.2686 7.92677 31.8928 8.34856 31.6251C8.77305 31.3574 9.26649 31.2236 9.82887 31.2236C10.3913 31.2236 10.8833 31.3574 11.3051 31.6251C11.7296 31.8928 12.0595 32.2686 12.2947 32.7526C12.5326 33.2365 12.6516 33.803 12.6516 34.4519C12.6516 35.0954 12.5326 35.6578 12.2947 36.139C12.0595 36.6203 11.7296 36.9948 11.3051 37.2625C10.8833 37.5301 10.3913 37.664 9.82887 37.664ZM9.82887 36.8042C10.2561 36.8042 10.6076 36.6947 10.8833 36.4757C11.1591 36.2567 11.3633 35.9687 11.4957 35.6118C11.6282 35.2549 11.6945 34.8683 11.6945 34.4519C11.6945 34.0355 11.6282 33.6475 11.4957 33.2879C11.3633 32.9283 11.1591 32.6377 10.8833 32.416C10.6076 32.1942 10.2561 32.0834 9.82887 32.0834C9.40168 32.0834 9.05019 32.1942 8.7744 32.416C8.49862 32.6377 8.29448 32.9283 8.162 33.2879C8.02952 33.6475 7.96327 34.0355 7.96327 34.4519C7.96327 34.8683 8.02952 35.2549 8.162 35.6118C8.29448 35.9687 8.49862 36.2567 8.7744 36.4757C9.05019 36.6947 9.40168 36.8042 9.82887 36.8042Z" fill="#FF4A11"/>
<path d="M16.6434 37.664C16.081 37.664 15.5876 37.5301 15.1631 37.2625C14.7413 36.9948 14.4114 36.6203 14.1735 36.139C13.9383 35.6578 13.8206 35.0954 13.8206 34.4519C13.8206 33.803 13.9383 33.2365 14.1735 32.7526C14.4114 32.2686 14.7413 31.8928 15.1631 31.6251C15.5876 31.3574 16.081 31.2236 16.6434 31.2236C17.2058 31.2236 17.6979 31.3574 18.1196 31.6251C18.5441 31.8928 18.874 32.2686 19.1092 32.7526C19.3472 33.2365 19.4661 33.803 19.4661 34.4519C19.4661 35.0954 19.3472 35.6578 19.1092 36.139C18.874 36.6203 18.5441 36.9948 18.1196 37.2625C17.6979 37.5301 17.2058 37.664 16.6434 37.664ZM16.6434 36.8042C17.0706 36.8042 17.4221 36.6947 17.6979 36.4757C17.9736 36.2567 18.1778 35.9687 18.3103 35.6118C18.4427 35.2549 18.509 34.8683 18.509 34.4519C18.509 34.0355 18.4427 33.6475 18.3103 33.2879C18.1778 32.9283 17.9736 32.6377 17.6979 32.416C17.4221 32.1942 17.0706 32.0834 16.6434 32.0834C16.2162 32.0834 15.8647 32.1942 15.5889 32.416C15.3131 32.6377 15.109 32.9283 14.9765 33.2879C14.844 33.6475 14.7778 34.0355 14.7778 34.4519C14.7778 34.8683 14.844 35.2549 14.9765 35.6118C15.109 35.9687 15.3131 36.2567 15.5889 36.4757C15.8647 36.6947 16.2162 36.8042 16.6434 36.8042Z" fill="#FF4A11"/>
<path d="M23.6363 31.3047V32.1158H20.408V31.3047H23.6363ZM21.349 29.8122H22.3061V35.7497C22.3061 36.0201 22.3453 36.2229 22.4237 36.358C22.5048 36.4905 22.6076 36.5798 22.7319 36.6257C22.859 36.669 22.9928 36.6906 23.1334 36.6906C23.2389 36.6906 23.3254 36.6852 23.393 36.6744C23.4606 36.6609 23.5147 36.6501 23.5552 36.6419L23.7499 37.5017C23.685 37.5261 23.5944 37.5504 23.4782 37.5747C23.3619 37.6018 23.2146 37.6153 23.0361 37.6153C22.7657 37.6153 22.5008 37.5572 22.2412 37.4409C21.9843 37.3246 21.7707 37.1475 21.6004 36.9096C21.4328 36.6717 21.349 36.3716 21.349 36.0093V29.8122Z" fill="#FF4A11"/>
<path d="M27.5399 37.664C26.9559 37.664 26.453 37.5261 26.0312 37.2503C25.6094 36.9745 25.285 36.5946 25.0578 36.1107C24.8307 35.6267 24.7172 35.0738 24.7172 34.4519C24.7172 33.8192 24.8334 33.2609 25.066 32.7769C25.3012 32.2902 25.6283 31.9103 26.0474 31.6373C26.4692 31.3615 26.9613 31.2236 27.5237 31.2236C27.9617 31.2236 28.3564 31.3047 28.7079 31.4669C29.0594 31.6292 29.3474 31.8563 29.5718 32.1483C29.7962 32.4403 29.9354 32.781 29.9895 33.1703H29.0324C28.9594 32.8864 28.7972 32.635 28.5457 32.416C28.297 32.1942 27.9617 32.0834 27.5399 32.0834C27.1668 32.0834 26.8396 32.1807 26.5584 32.3754C26.28 32.5674 26.0623 32.8391 25.9055 33.1906C25.7514 33.5394 25.6743 33.949 25.6743 34.4194C25.6743 34.9007 25.75 35.3198 25.9014 35.6767C26.0555 36.0336 26.2718 36.3107 26.5503 36.5081C26.8315 36.7055 27.1614 36.8042 27.5399 36.8042C27.7887 36.8042 28.0144 36.7609 28.2172 36.6744C28.42 36.5879 28.5917 36.4635 28.7323 36.3013C28.8729 36.139 28.9729 35.9444 29.0324 35.7173H29.9895C29.9354 36.085 29.8016 36.4162 29.588 36.7109C29.3771 37.0029 29.0973 37.2354 28.7485 37.4085C28.4024 37.5788 27.9995 37.664 27.5399 37.664Z" fill="#FF4A11"/>
<path d="M33.2219 37.6802C32.8271 37.6802 32.4689 37.6058 32.1471 37.4571C31.8254 37.3057 31.5699 37.0881 31.3806 36.8042C31.1913 36.5176 31.0967 36.1715 31.0967 35.7659C31.0967 35.409 31.167 35.1197 31.3076 34.898C31.4482 34.6736 31.6361 34.4979 31.8713 34.3708C32.1066 34.2437 32.3661 34.1491 32.65 34.0869C32.9366 34.022 33.2246 33.9706 33.5139 33.9328C33.8924 33.8841 34.1993 33.8476 34.4345 33.8233C34.6724 33.7962 34.8455 33.7516 34.9536 33.6894C35.0645 33.6272 35.1199 33.5191 35.1199 33.365V33.3325C35.1199 32.9324 35.0104 32.6214 34.7914 32.3997C34.5751 32.178 34.2466 32.0672 33.8059 32.0672C33.349 32.0672 32.9907 32.1672 32.7311 32.3673C32.4716 32.5674 32.2891 32.781 32.1836 33.0081L31.2752 32.6836C31.4374 32.3051 31.6537 32.0104 31.9241 31.7995C32.1971 31.5859 32.4946 31.4372 32.8163 31.3534C33.1408 31.2669 33.4598 31.2236 33.7734 31.2236C33.9735 31.2236 34.2033 31.2479 34.4629 31.2966C34.7252 31.3426 34.978 31.4385 35.2213 31.5845C35.4674 31.7305 35.6715 31.9509 35.8337 32.2456C35.9959 32.5403 36.0771 32.9351 36.0771 33.4299V37.5342H35.1199V36.6906H35.0712C35.0064 36.8258 34.8982 36.9705 34.7468 37.1246C34.5954 37.2787 34.394 37.4098 34.1425 37.518C33.8911 37.6261 33.5842 37.6802 33.2219 37.6802ZM33.3679 36.8204C33.7464 36.8204 34.0655 36.746 34.325 36.5973C34.5873 36.4486 34.7847 36.2567 34.9171 36.0214C35.0523 35.7862 35.1199 35.5388 35.1199 35.2792V34.4032C35.0794 34.4519 34.9901 34.4965 34.8522 34.5371C34.7171 34.5749 34.5602 34.6087 34.3818 34.6385C34.206 34.6655 34.0344 34.6898 33.8667 34.7115C33.7018 34.7304 33.568 34.7466 33.4652 34.7601C33.2165 34.7926 32.9839 34.8453 32.7676 34.9183C32.554 34.9886 32.381 35.0954 32.2485 35.2387C32.1187 35.3793 32.0538 35.5713 32.0538 35.8146C32.0538 36.1472 32.1769 36.3986 32.4229 36.5689C32.6717 36.7366 32.9866 36.8204 33.3679 36.8204Z" fill="#FF4A11"/>
<path d="M37.824 37.5342V31.3047H38.7487V32.2781H38.8298C38.9596 31.9455 39.1691 31.6873 39.4585 31.5034C39.7478 31.3169 40.0952 31.2236 40.5008 31.2236C40.9117 31.2236 41.2538 31.3169 41.5268 31.5034C41.8026 31.6873 42.0176 31.9455 42.1717 32.2781H42.2366C42.3961 31.9563 42.6354 31.7008 42.9544 31.5115C43.2735 31.3196 43.6561 31.2236 44.1022 31.2236C44.6591 31.2236 45.1147 31.398 45.4689 31.7468C45.8231 32.0929 46.0002 32.6323 46.0002 33.365V37.5342H45.0431V33.365C45.0431 32.9053 44.9174 32.5768 44.6659 32.3795C44.4145 32.1821 44.1184 32.0834 43.7777 32.0834C43.3397 32.0834 43.0004 32.2159 42.7598 32.4808C42.5191 32.7431 42.3988 33.0757 42.3988 33.4785V37.5342H41.4254V33.2676C41.4254 32.9134 41.3105 32.6282 41.0807 32.4119C40.8509 32.1929 40.5548 32.0834 40.1925 32.0834C39.9438 32.0834 39.7113 32.1496 39.495 32.2821C39.2814 32.4146 39.1083 32.5985 38.9758 32.8337C38.846 33.0662 38.7812 33.3352 38.7812 33.6408V37.5342H37.824Z" fill="#FF4A11"/>
<path d="M47.7502 39.8702V31.3047H48.6749V32.2943H48.7885C48.8588 32.1861 48.9561 32.0482 49.0805 31.8806C49.2076 31.7103 49.3887 31.5589 49.6239 31.4264C49.8619 31.2912 50.1836 31.2236 50.5892 31.2236C51.1137 31.2236 51.5761 31.3547 51.9762 31.617C52.3764 31.8793 52.6887 32.251 52.9131 32.7323C53.1375 33.2136 53.2497 33.7814 53.2497 34.4357C53.2497 35.0954 53.1375 35.6672 52.9131 36.1512C52.6887 36.6325 52.3777 37.0056 51.9803 37.2706C51.5828 37.5328 51.1245 37.664 50.6054 37.664C50.2053 37.664 49.8849 37.5977 49.6442 37.4652C49.4036 37.3301 49.2184 37.1773 49.0886 37.007C48.9588 36.8339 48.8588 36.6906 48.7885 36.5771H48.7074V39.8702H47.7502ZM48.6911 34.4194C48.6911 34.8899 48.7601 35.3049 48.898 35.6645C49.0359 36.0214 49.2373 36.3013 49.5023 36.5041C49.7672 36.7041 50.0917 36.8042 50.4756 36.8042C50.8758 36.8042 51.2097 36.6987 51.4774 36.4878C51.7478 36.2742 51.9505 35.9876 52.0857 35.628C52.2236 35.2657 52.2926 34.8629 52.2926 34.4194C52.2926 33.9814 52.225 33.5867 52.0898 33.2352C51.9573 32.881 51.7559 32.6012 51.4855 32.3957C51.2178 32.1875 50.8812 32.0834 50.4756 32.0834C50.0863 32.0834 49.7591 32.1821 49.4942 32.3795C49.2292 32.5741 49.0291 32.8472 48.8939 33.1987C48.7587 33.5475 48.6911 33.9544 48.6911 34.4194Z" fill="#FF4A11"/>
<path d="M58.3923 29.2282L60.8581 36.2202H60.9554L63.4213 29.2282H64.4757L61.4259 37.5342H60.3876L57.3378 29.2282H58.3923Z" fill="#FF4A11"/>
<path d="M67.6716 37.664C67.0714 37.664 66.5536 37.5315 66.1183 37.2665C65.6857 36.9988 65.3518 36.6257 65.1165 36.1472C64.884 35.6659 64.7678 35.1062 64.7678 34.4681C64.7678 33.83 64.884 33.2676 65.1165 32.781C65.3518 32.2916 65.6789 31.9103 66.098 31.6373C66.5198 31.3615 67.0119 31.2236 67.5743 31.2236C67.8987 31.2236 68.2191 31.2777 68.5355 31.3858C68.8518 31.494 69.1397 31.6697 69.3993 31.9131C69.6589 32.1537 69.8657 32.4727 70.0198 32.8702C70.1739 33.2676 70.251 33.757 70.251 34.3383V34.7439H65.4491V33.9165H69.2776C69.2776 33.5651 69.2073 33.2514 69.0667 32.9756C68.9289 32.6998 68.7315 32.4822 68.4746 32.3227C68.2205 32.1632 67.9203 32.0834 67.5743 32.0834C67.193 32.0834 66.8632 32.178 66.5847 32.3673C66.3089 32.5538 66.0967 32.7972 65.9479 33.0973C65.7992 33.3974 65.7249 33.7192 65.7249 34.0625V34.6141C65.7249 35.0846 65.806 35.4834 65.9682 35.8105C66.1332 36.135 66.3616 36.3824 66.6536 36.5527C66.9456 36.7204 67.285 36.8042 67.6716 36.8042C67.923 36.8042 68.1502 36.769 68.353 36.6987C68.5584 36.6257 68.7355 36.5176 68.8842 36.3743C69.0329 36.2283 69.1479 36.0471 69.229 35.8308L70.1537 36.0904C70.0563 36.404 69.8927 36.6798 69.6629 36.9177C69.4331 37.153 69.1492 37.3368 68.8112 37.4693C68.4733 37.5991 68.0934 37.664 67.6716 37.664Z" fill="#FF4A11"/>
<path d="M71.707 37.5342V31.3047H72.6317V32.2456H72.6966C72.8101 31.9374 73.0156 31.6873 73.313 31.4953C73.6104 31.3034 73.9457 31.2074 74.3188 31.2074C74.3891 31.2074 74.477 31.2087 74.5824 31.2114C74.6879 31.2141 74.7676 31.2182 74.8217 31.2236V32.1969C74.7893 32.1888 74.7149 32.1767 74.5987 32.1604C74.4851 32.1415 74.3648 32.1321 74.2377 32.1321C73.9349 32.1321 73.6645 32.1956 73.4266 32.3227C73.1913 32.447 73.0048 32.6201 72.8669 32.8418C72.7317 33.0608 72.6641 33.3109 72.6641 33.5921V37.5342H71.707Z" fill="#FF4A11"/>
<path d="M77.468 37.5342L75.57 31.3047H76.5758L77.9223 36.0742H77.9871L79.3174 31.3047H80.3394L81.6535 36.0579H81.7183L83.0648 31.3047H84.0706L82.1726 37.5342H81.2317L79.869 32.7485H79.7716L78.4089 37.5342H77.468Z" fill="#FF4A11"/>
<path d="M87.1691 37.6802C86.7744 37.6802 86.4162 37.6058 86.0944 37.4571C85.7727 37.3057 85.5171 37.0881 85.3279 36.8042C85.1386 36.5176 85.044 36.1715 85.044 35.7659C85.044 35.409 85.1143 35.1197 85.2549 34.898C85.3955 34.6736 85.5834 34.4979 85.8186 34.3708C86.0538 34.2437 86.3134 34.1491 86.5973 34.0869C86.8839 34.022 87.1719 33.9706 87.4612 33.9328C87.8397 33.8841 88.1466 33.8476 88.3818 33.8233C88.6197 33.7962 88.7928 33.7516 88.9009 33.6894C89.0118 33.6272 89.0672 33.5191 89.0672 33.365V33.3325C89.0672 32.9324 88.9577 32.6214 88.7387 32.3997C88.5224 32.178 88.1939 32.0672 87.7532 32.0672C87.2962 32.0672 86.938 32.1672 86.6784 32.3673C86.4188 32.5674 86.2363 32.781 86.1309 33.0081L85.2224 32.6836C85.3847 32.3051 85.601 32.0104 85.8713 31.7995C86.1444 31.5859 86.4418 31.4372 86.7636 31.3534C87.088 31.2669 87.4071 31.2236 87.7207 31.2236C87.9208 31.2236 88.1506 31.2479 88.4102 31.2966C88.6724 31.3426 88.9252 31.4385 89.1686 31.5845C89.4146 31.7305 89.6188 31.9509 89.781 32.2456C89.9432 32.5403 90.0243 32.9351 90.0243 33.4299V37.5342H89.0672V36.6906H89.0185C88.9536 36.8258 88.8455 36.9705 88.6941 37.1246C88.5427 37.2787 88.3412 37.4098 88.0898 37.518C87.8383 37.6261 87.5315 37.6802 87.1691 37.6802ZM87.3152 36.8204C87.6937 36.8204 88.0127 36.746 88.2723 36.5973C88.5346 36.4486 88.7319 36.2567 88.8644 36.0214C88.9996 35.7862 89.0672 35.5388 89.0672 35.2792V34.4032C89.0266 34.4519 88.9374 34.4965 88.7995 34.5371C88.6643 34.5749 88.5075 34.6087 88.3291 34.6385C88.1533 34.6655 87.9816 34.6898 87.814 34.7115C87.6491 34.7304 87.5152 34.7466 87.4125 34.7601C87.1637 34.7926 86.9312 34.8453 86.7149 34.9183C86.5013 34.9886 86.3283 35.0954 86.1958 35.2387C86.066 35.3793 86.0011 35.5713 86.0011 35.8146C86.0011 36.1472 86.1241 36.3986 86.3702 36.5689C86.6189 36.7366 86.9339 36.8204 87.3152 36.8204Z" fill="#FF4A11"/>
<path d="M92.7284 29.2282V37.5342H91.7713V29.2282H92.7284Z" fill="#FF4A11"/>
<path d="M97.1907 31.3047V32.1158H93.9624V31.3047H97.1907ZM94.9033 29.8122H95.8604V35.7497C95.8604 36.0201 95.8996 36.2229 95.978 36.358C96.0591 36.4905 96.1619 36.5798 96.2863 36.6257C96.4133 36.669 96.5472 36.6906 96.6878 36.6906C96.7932 36.6906 96.8797 36.6852 96.9473 36.6744C97.0149 36.6609 97.069 36.6501 97.1095 36.6419L97.3042 37.5017C97.2393 37.5261 97.1488 37.5504 97.0325 37.5747C96.9162 37.6018 96.7689 37.6153 96.5904 37.6153C96.32 37.6153 96.0551 37.5572 95.7955 37.4409C95.5387 37.3246 95.3251 37.1475 95.1547 36.9096C94.9871 36.6717 94.9033 36.3716 94.9033 36.0093V29.8122Z" fill="#FF4A11"/>
<path d="M102.556 34.9872V31.3047H103.513V37.5342H102.556V36.4797H102.491C102.345 36.7961 102.118 37.0651 101.81 37.2868C101.502 37.5058 101.112 37.6153 100.642 37.6153C100.253 37.6153 99.9066 37.5301 99.6038 37.3598C99.301 37.1868 99.063 36.9272 98.89 36.5811C98.7169 36.2323 98.6304 35.793 98.6304 35.263V31.3047H99.5876V35.1981C99.5876 35.6524 99.7146 36.0147 99.9688 36.285C100.226 36.5554 100.553 36.6906 100.95 36.6906C101.188 36.6906 101.43 36.6298 101.676 36.5081C101.925 36.3864 102.133 36.1999 102.301 35.9484C102.471 35.697 102.556 35.3766 102.556 34.9872Z" fill="#FF4A11"/>
<path d="M106.224 33.7868V37.5342H105.266V31.3047H106.191V32.2781H106.272C106.418 31.9617 106.64 31.7076 106.937 31.5156C107.235 31.3209 107.619 31.2236 108.089 31.2236C108.511 31.2236 108.88 31.3101 109.196 31.4832C109.513 31.6535 109.759 31.9131 109.935 32.2618C110.11 32.6079 110.198 33.0459 110.198 33.5759V37.5342H109.241V33.6408C109.241 33.1514 109.114 32.7701 108.86 32.4971C108.606 32.2213 108.257 32.0834 107.813 32.0834C107.508 32.0834 107.235 32.1496 106.994 32.2821C106.756 32.4146 106.568 32.6079 106.43 32.8621C106.293 33.1162 106.224 33.4245 106.224 33.7868Z" fill="#FF4A11"/>
<path d="M114.462 40C113.999 40 113.602 39.9405 113.269 39.8216C112.937 39.7053 112.66 39.5512 112.438 39.3592C112.219 39.17 112.044 38.9672 111.915 38.7509L112.677 38.2155C112.764 38.3291 112.873 38.4589 113.006 38.6049C113.138 38.7536 113.319 38.882 113.549 38.9902C113.782 39.101 114.086 39.1564 114.462 39.1564C114.965 39.1564 115.38 39.0348 115.707 38.7914C116.034 38.5481 116.197 38.1669 116.197 37.6477V36.3824H116.116C116.046 36.4959 115.946 36.6365 115.816 36.8042C115.689 36.9691 115.505 37.1165 115.265 37.2462C115.027 37.3733 114.705 37.4369 114.299 37.4369C113.797 37.4369 113.345 37.3179 112.945 37.08C112.547 36.842 112.232 36.4959 112 36.0417C111.77 35.5875 111.655 35.0359 111.655 34.387C111.655 33.7489 111.767 33.1933 111.992 32.7201C112.216 32.2443 112.528 31.8766 112.929 31.617C113.329 31.3547 113.791 31.2236 114.316 31.2236C114.721 31.2236 115.043 31.2912 115.281 31.4264C115.522 31.5589 115.705 31.7103 115.832 31.8806C115.962 32.0482 116.062 32.1861 116.133 32.2943H116.23V31.3047H117.155V37.7126C117.155 38.248 117.033 38.6833 116.79 39.0186C116.549 39.3565 116.225 39.6039 115.816 39.7607C115.411 39.9203 114.959 40 114.462 40ZM114.429 36.5771C114.813 36.5771 115.138 36.4892 115.403 36.3134C115.668 36.1377 115.869 35.8849 116.007 35.555C116.145 35.2252 116.214 34.8304 116.214 34.3708C116.214 33.922 116.146 33.5259 116.011 33.1825C115.876 32.8391 115.676 32.5701 115.411 32.3754C115.146 32.1807 114.819 32.0834 114.429 32.0834C114.024 32.0834 113.686 32.1861 113.415 32.3916C113.148 32.5971 112.946 32.8729 112.811 33.219C112.679 33.5651 112.612 33.949 112.612 34.3708C112.612 34.8034 112.68 35.186 112.815 35.5185C112.953 35.8484 113.156 36.1079 113.423 36.2972C113.694 36.4838 114.029 36.5771 114.429 36.5771Z" fill="#FF4A11"/>
</svg>
